<?xml version="1.0" encoding="UTF-8"?>
<!DOCTYPE svg PUBLIC "-//W3C//DTD SVG 1.1//EN" "http://www.w3.org/Graphics/SVG/1.1/DTD/svg11.dtd">
<svg xmlns="http://www.w3.org/2000/svg" version="1.1" width="1621px" height="1630px" style="shape-rendering:geometricPrecision; text-rendering:geometricPrecision; image-rendering:optimizeQuality; fill-rule:evenodd; clip-rule:evenodd" xmlns:xlink="http://www.w3.org/1999/xlink">
<g><path style="opacity:0.995" fill="#000000" d="M 1618.5,-0.5 C 1619.17,-0.5 1619.83,-0.5 1620.5,-0.5C 1620.5,0.166667 1620.5,0.833333 1620.5,1.5C 1580.11,68.6046 1539.94,135.938 1500,203.5C 1418,287.5 1336,371.5 1254,455.5C 1254.04,457.279 1254.71,458.945 1256,460.5C 1269.1,476.353 1282.43,492.019 1296,507.5C 1297.6,509.369 1298.6,511.369 1299,513.5C 1211.65,615.353 1124.48,717.353 1037.5,819.5C 1052.34,1034.83 1066.34,1250.17 1079.5,1465.5C 1034.14,1507.36 988.638,1549.03 943,1590.5C 846.3,1455.3 749.8,1319.97 653.5,1184.5C 638.514,1198.99 623.681,1213.65 609,1228.5C 596.862,1360.85 584.696,1493.18 572.5,1625.5C 547.679,1626.72 523.012,1628.05 498.5,1629.5C 497.167,1629.5 495.833,1629.5 494.5,1629.5C 472.91,1567.9 451.41,1506.23 430,1444.5C 429.333,1441.83 429.333,1439.17 430,1436.5C 436.045,1409.93 442.212,1383.43 448.5,1357C 385.167,1296.33 321.833,1235.67 258.5,1175C 231.822,1174.75 205.155,1174.08 178.5,1173C 120.245,1150.14 61.912,1127.47 3.5,1105C 2.2405,1102.79 1.57383,1100.29 1.5,1097.5C 0.997409,1085.67 0.330742,1074 -0.5,1062.5C -0.5,1052.83 -0.5,1043.17 -0.5,1033.5C 134.212,1026.58 268.879,1019.08 403.5,1011C 418.257,997.954 432.59,984.454 446.5,970.5C 315.757,868.379 184.924,766.379 54,664.5C 53.3333,663.833 53.3333,663.167 54,662.5C 95.2056,616.296 136.039,569.796 176.5,523C 386.44,548.659 596.44,573.992 806.5,599C 910.036,506.462 1013.87,414.295 1118,322.5C 1134.67,339.833 1151.33,357.167 1168,374.5C 1252.07,291.219 1336.24,208.052 1420.5,125C 1486.94,83.6986 1552.94,41.8653 1618.5,-0.5 Z"/></g>
</svg>
